<svg class="thumb" width="1000" height="1000" viewBox="0,0,600,600" xmlns="http://www.w3.org/2000/svg" xmlns:inkscape="http://www.inkscape.org/namespaces/inkscape" xmlns:sodipodi="http://sodipodi.sourceforge.net/DTD/sodipodi-0.dtd" xmlns:xlink="http://www.w3.org/1999/xlink" xmlns:ns1="http://www.inkscape.org/namespaces/inkscape" xmlns:sketch="http://www.bohemiancoding.com/sketch/ns">
  <defs></defs>
  <g transform="matrix(3.5351,0,0,3.5351,-186.3,149.1475)">
    <g transform="matrix(-0.2754,-0.2852,0.2852,-0.2754,124.2228,86.9847)">
      <svg width="82" height="82" viewBox="9,9,82,82">
        <defs>
          <linearGradient x1="0" y1="0.5" x2="1" y2="0.5" id="linearGradientSk2gadi7j4">
            <stop offset="0%" stop-color="#ffffff"></stop>
            <stop offset="100%" stop-color="#ffffff"></stop>
          </linearGradient>
        </defs>
        <g></g>
        <g></g>
        <g>
          <polygon points="72.5,45.5 41,14 14,41 45.5,72.5 32,86 86,86 86,32 " fill="url('#linearGradientSk2gadi7j4')" stroke="none" style=""></polygon>
        </g>
      </svg>
    </g>
    <g transform="matrix(0.6625,0,0,0.6625,60.5631,0.6971)">
      <svg width="230" height="130" style="overflow: visible;">
        <defs>
          <linearGradient x1="0" y1="0.5" x2="1" y2="0.5" id="linearGradientSk2gadi7jd">
            <stop offset="0%" stop-color="#000000"></stop>
            <stop offset="100%" stop-color="#000000"></stop>
          </linearGradient>
        </defs>
        <g>
          <path d="M 36.639172302215435 66.75171089538964L 56.038348382450614 66.57291657771847L 56.077978050800404 70.8727339563273L 0.9803181528128762 71.38054668332114L 0.9406884844630845 67.08072930471232L 11.94022131346241 66.97935108335238Q 7.521975777979055 65.01998731207831  3.9880244761127477 61.35240115821124L 3.9880244761127477 61.35240115821124L 10.602029248444396 51.99104757704712Q 17.461645764447574 58.42810134825149  23.961369708856267 58.36819603562971L 23.961369708856267 58.36819603562971Q 28.5611743464378 58.325801506697374  31.782466092622528 55.195980507668494Q 35.00375783880726 52.06615950863961  34.946617386768025 45.86642282320363L 34.946617386768025 45.86642282320363L 34.63234490055223 11.767871053305726L 12.43328773657178 11.972470736413953L 12.335595995988571 1.3729209193782306L 46.33415201289557 1.0595700533566221L 46.740586518529476 45.157697122344835Q 46.88435926882175 60.757034588925684  36.639172302215435 66.75171089538964L 36.639172302215435 66.75171089538964ZM 136.77325219741283 66.32687635426052L 160.87324042516533 66.30305572896454L 160.87749057822646 70.60305362852203L 123.57750879834393 70.63992123530792L 108.83017125064103 22.754474226283236L 108.03017164142102 22.75526495243414L 93.37752355028888 70.66977114750455L 56.077541770406334 70.70663875429045L 56.07329161734523 66.40664085473296L 80.17327984509775 66.38282022943697L 57.2084514868011 0.8054868094665093L 69.90844528316862 0.792934031820908L 87.55815359274672 51.075513486208585L 103.10842906579866 0.7601188965583915L 113.70842388796368 0.7496417750589133L 129.35813317449177 51.03419804482385L 146.90840767059373 0.7168266397963966L 159.60840146696125 0.7042738621507953L 136.77325219741283 66.32687635426052ZM 218.61263711694494 66.94932903531118L 231.51215338435776 67.06104325442168L 231.47491531132093 71.36088201022595L 160.87756271602274 70.74948481106311L 160.91480078905957 66.44964605525884L 170.61443705215294 66.53364822001635L 171.18253416638922 0.9361081314673098L 198.3815142031047 1.171660593467721Q 205.48124796268849 1.2331467140634165  210.61633281576513 2.9776820538324777Q 215.7514176688417 4.722217393601538  218.2262098729589 7.643758689979324L 218.2262098729589 7.643758689979324Q 222.97926578771742 13.085124278797904  222.92037767221734 19.88486928797677L 222.92037767221734 19.88486928797677Q 222.84936553293778 28.084561799045392  217.61492045797743 32.03937971612112L 217.61492045797743 32.03937971612112Q 215.7028676816333 33.4228731857388  214.99986292474355 33.76679804932152Q 214.2968581678538 34.11072291290425  212.48999765183586 34.89510488341055L 212.48999765183586 34.89510488341055Q 218.97762988683036 36.351342495704834  222.7889484414426 40.834516692105026Q 226.60026699605484 45.31769088850522  226.54311088395178 51.91744339741412L 226.54311088395178 51.91744339741412Q 226.45737671579724 61.817072160777464  218.61263711694494 66.94932903531118L 218.61263711694494 66.94932903531118ZM 182.63655700460342 40.93680013575229L 182.471150680184 60.03608391153409L 200.97045695515592 60.19629422576231Q 207.47021321392984 60.25258433616682  210.93783687840664 58.23253826699898Q 214.40546054288345 56.212492197831146  214.4548226396997 50.512705940137096L 214.4548226396997 50.512705940137096Q 214.5353607976631 41.213054677583656  199.63591952755058 41.08402042450255L 199.63591952755058 41.08402042450255L 182.63655700460342 40.93680013575229ZM 182.88769749717738 11.93788759660714L 182.73095118974328 30.037208871039116L 197.7303887099908 30.167109125818754Q 210.52990872726863 30.27795734323071  210.6052508750408 21.578283581487163L 210.6052508750408 21.578283581487163Q 210.64855095996737 16.578471074738  207.5677192431506 14.351707519113914Q 204.4868875263338 12.12494396348982  197.98713126755987 12.06865385308531L 197.98713126755987 12.06865385308531L 182.88769749717738 11.93788759660714Z" data-textpath="JWB" data-text-anchor="middle" data-font-size="100" data-letterspacing="0" data-side="left" data-offset="0.5" data-dx="0" data-dy="0" data-xmlspace="preserve" data-href="" data-font="Montserrat Subrayada" data-font-src="/Content/clientfonts/montserratsubrayada.woff" data-font-scale="contain" transform="translate(0,0)" data-x="0" data-y="0" fill="url('#linearGradientSk2gadi7jd')"></path>
        </g>
      </svg>
    </g>
  </g>
</svg>