<svg id="svg" xmlns="http://www.w3.org/2000/svg" xmlns:xlink="http://www.w3.org/1999/xlink" width="400" height="400" viewBox="0, 0, 400,400"><g id="svgg"><path class="jwb" id="path0" d="M79.467 137.467 C 79.320 137.613,79.200 138.063,79.200 138.467 C 79.200 138.870,79.020 139.222,78.800 139.250 C 78.580 139.278,78.178 139.322,77.907 139.350 C 77.190 139.423,76.977 143.213,77.665 143.649 C 77.959 143.835,78.020 143.991,77.800 143.994 C 77.536 143.998,77.427 157.460,77.478 183.728 L 77.557 223.455 76.378 223.282 C 75.348 223.131,75.200 223.232,75.200 224.088 C 75.200 224.626,75.065 225.202,74.900 225.367 C 74.735 225.532,74.600 225.832,74.600 226.033 C 74.600 226.235,74.493 226.355,74.361 226.300 C 74.230 226.245,73.845 226.431,73.504 226.714 C 73.100 227.049,71.586 227.231,69.143 227.239 C 62.624 227.259,62.869 227.294,62.728 226.300 C 62.616 225.511,62.366 225.400,60.700 225.400 L 58.800 225.400 58.794 224.000 C 58.790 223.230,58.785 217.163,58.782 210.517 C 58.777 198.119,58.665 197.200,57.171 197.200 C 56.967 197.200,56.800 196.312,56.800 195.226 L 56.800 193.252 39.914 193.242 C 27.146 193.234,22.944 193.350,22.683 193.716 C 22.416 194.093,22.294 194.089,22.136 193.700 C 22.025 193.425,21.650 193.200,21.305 193.200 C 20.772 193.200,20.792 193.337,21.435 194.100 L 22.194 195.000 21.197 194.135 C 20.067 193.155,18.758 193.756,19.730 194.809 C 20.092 195.201,20.085 195.253,19.700 195.035 C 19.303 194.811,19.200 199.158,19.200 216.200 C 19.200 227.996,19.344 237.558,19.520 237.449 C 19.696 237.341,20.077 237.645,20.367 238.126 C 20.803 238.849,20.803 238.914,20.367 238.500 C 19.483 237.661,19.200 237.928,19.200 239.600 C 19.200 240.480,19.391 241.200,19.624 241.200 C 19.857 241.200,19.949 241.360,19.828 241.555 C 19.707 241.750,19.911 242.155,20.281 242.455 C 20.852 242.918,20.903 242.916,20.615 242.438 C 20.385 242.057,20.425 241.968,20.738 242.162 C 20.992 242.319,21.200 242.707,21.200 243.024 C 21.200 243.341,21.425 243.603,21.700 243.606 C 22.048 243.610,22.065 243.702,21.758 243.906 C 20.686 244.619,21.178 246.904,22.353 246.669 C 23.375 246.465,23.442 246.531,23.287 247.591 C 23.147 248.546,23.274 248.756,24.059 248.867 C 24.678 248.954,25.044 249.308,25.128 249.900 C 25.198 250.395,25.417 250.800,25.615 250.800 C 25.813 250.800,25.871 251.071,25.744 251.402 C 25.584 251.819,25.949 252.187,26.930 252.596 C 27.709 252.922,28.610 253.565,28.932 254.025 C 29.439 254.749,29.766 254.824,31.359 254.585 C 32.972 254.343,33.200 254.399,33.200 255.035 C 33.200 255.599,33.093 255.653,32.720 255.280 C 31.922 254.482,31.132 254.711,31.272 255.700 C 31.404 256.632,31.488 256.667,33.772 256.750 C 34.872 256.790,35.170 256.979,35.272 257.700 C 35.389 258.520,35.649 258.612,38.200 258.736 C 40.536 258.850,43.399 259.547,41.700 259.588 C 41.425 259.595,41.200 259.858,41.200 260.174 C 41.200 260.641,41.977 260.734,45.349 260.674 C 48.782 260.613,49.461 260.698,49.281 261.166 C 49.126 261.569,49.227 261.633,49.632 261.389 C 50.107 261.103,50.115 261.151,49.681 261.688 C 48.896 262.656,49.298 262.723,56.085 262.756 C 61.627 262.783,62.420 262.705,62.814 262.093 C 63.195 261.501,63.231 261.497,63.058 262.060 C 62.874 262.662,63.901 262.723,74.847 262.759 L 86.837 262.799 87.822 261.814 C 88.702 260.934,89.193 260.818,92.461 260.715 C 96.201 260.597,96.123 260.629,97.078 258.856 C 97.121 258.776,98.093 258.703,99.240 258.693 C 101.223 258.677,102.915 257.853,102.513 257.100 C 102.425 256.935,102.912 256.800,103.595 256.800 C 104.386 256.800,105.199 256.437,105.836 255.800 C 106.386 255.250,107.278 254.800,107.818 254.800 C 108.599 254.800,108.800 254.595,108.800 253.800 C 108.800 253.000,109.000 252.800,109.800 252.800 C 110.600 252.800,110.800 252.600,110.800 251.800 C 110.800 251.007,111.002 250.800,111.773 250.800 C 112.538 250.800,112.774 250.564,112.873 249.700 C 112.976 248.805,113.173 248.624,113.930 248.730 C 114.632 248.829,114.842 248.681,114.784 248.130 C 114.527 245.668,114.792 244.800,115.800 244.800 C 116.606 244.800,116.800 244.602,116.800 243.776 C 116.800 243.213,116.632 242.856,116.428 242.983 C 116.223 243.109,115.925 243.002,115.766 242.745 C 115.592 242.463,115.649 242.383,115.909 242.544 C 116.315 242.795,116.902 241.697,116.766 240.941 C 116.512 239.521,116.860 238.800,117.800 238.800 C 118.715 238.800,118.800 238.650,118.800 237.044 C 118.800 235.298,117.939 234.666,117.106 235.800 C 116.925 236.046,116.810 236.004,116.806 235.690 C 116.803 235.410,117.252 235.008,117.804 234.798 L 118.809 234.416 118.795 188.808 C 118.786 158.340,118.647 143.200,118.376 143.200 C 118.107 143.200,118.110 142.942,118.386 142.426 C 118.991 141.295,118.894 141.029,118.100 141.644 C 117.433 142.160,117.433 142.147,118.100 141.362 C 118.958 140.351,119.011 139.200,118.200 139.200 C 117.870 139.200,117.600 139.387,117.600 139.616 C 117.600 139.864,117.386 139.832,117.071 139.537 C 116.779 139.265,116.620 138.628,116.717 138.121 C 116.907 137.126,115.841 136.768,115.465 137.700 C 115.304 138.100,115.257 138.100,115.232 137.700 C 115.207 137.310,112.031 137.200,100.774 137.200 C 86.836 137.200,84.376 137.390,85.012 138.420 C 85.142 138.629,85.078 138.800,84.870 138.800 C 84.663 138.800,84.399 138.440,84.284 138.000 C 84.074 137.195,80.170 136.763,79.467 137.467 M139.128 138.100 C 139.047 138.666,138.679 139.046,138.133 139.123 C 137.390 139.229,137.267 139.505,137.267 141.057 C 137.267 143.065,137.194 143.213,136.137 143.368 C 135.428 143.472,135.396 144.836,135.306 178.874 L 135.213 214.273 136.206 215.206 C 137.135 216.078,137.200 216.400,137.200 220.093 C 137.200 222.627,137.344 223.958,137.600 223.800 C 137.820 223.664,138.000 223.743,138.000 223.976 C 138.000 224.209,137.818 224.400,137.595 224.400 C 137.145 224.400,137.244 227.521,137.718 228.275 C 137.882 228.537,138.352 228.686,138.763 228.607 C 139.328 228.498,139.460 228.648,139.309 229.226 C 139.029 230.299,139.534 231.554,139.966 230.855 C 140.219 230.446,140.343 230.475,140.540 230.987 C 140.707 231.422,140.635 231.545,140.327 231.355 C 140.018 231.164,139.949 231.290,140.119 231.734 C 140.286 232.169,140.171 232.400,139.787 232.400 C 139.464 232.400,139.200 232.591,139.200 232.824 C 139.200 233.057,139.425 233.112,139.700 232.947 C 140.040 232.743,140.024 232.863,139.651 233.323 C 139.264 233.801,139.241 234.000,139.575 234.000 C 139.835 234.000,139.933 234.184,139.794 234.410 C 139.655 234.635,139.689 234.794,139.870 234.763 C 141.196 234.532,141.451 234.839,141.317 236.500 C 141.179 238.212,141.798 240.000,142.530 240.000 C 142.747 240.000,142.581 239.607,142.162 239.127 L 141.400 238.255 142.463 239.027 C 143.048 239.452,143.361 239.860,143.160 239.934 C 142.959 240.008,142.921 240.272,143.075 240.522 C 143.229 240.771,143.331 241.798,143.302 242.804 C 143.256 244.381,143.362 244.642,144.069 244.695 C 145.085 244.772,145.091 244.778,145.261 246.000 C 145.337 246.550,145.580 247.132,145.800 247.294 C 146.052 247.479,146.024 247.590,145.725 247.594 C 145.433 247.598,145.259 248.231,145.273 249.238 C 145.294 250.742,145.373 250.860,146.248 250.693 C 147.249 250.501,147.412 251.075,147.212 254.100 C 147.172 254.705,147.344 255.200,147.593 255.200 C 147.843 255.200,147.949 255.360,147.828 255.555 C 147.707 255.750,147.911 256.155,148.281 256.455 C 148.732 256.820,148.855 256.837,148.656 256.505 C 148.463 256.182,148.551 256.083,148.908 256.220 C 149.263 256.356,149.395 256.850,149.283 257.615 C 149.136 258.616,149.243 258.800,149.971 258.800 C 150.445 258.800,151.231 259.186,151.717 259.659 C 152.203 260.131,152.347 260.373,152.038 260.197 C 151.662 259.982,151.571 260.029,151.762 260.338 C 151.926 260.604,153.065 260.800,154.447 260.800 C 155.767 260.800,156.756 260.653,156.645 260.472 C 156.533 260.292,156.928 260.195,157.521 260.257 C 158.115 260.318,164.045 260.445,170.700 260.539 L 182.800 260.709 182.800 259.754 C 182.800 259.229,182.935 258.785,183.100 258.766 C 183.265 258.748,184.120 258.703,185.000 258.666 L 186.600 258.600 186.600 255.584 L 186.600 252.568 187.700 252.730 L 188.800 252.891 188.800 249.845 C 188.800 248.115,188.973 246.778,189.200 246.750 C 189.420 246.722,189.825 246.678,190.100 246.650 C 190.452 246.615,190.634 245.482,190.715 242.819 C 190.841 238.638,190.801 238.780,191.881 238.699 C 192.821 238.628,193.184 235.690,192.320 235.142 C 191.920 234.889,191.916 234.811,192.300 234.806 C 192.575 234.803,192.800 234.393,192.800 233.895 C 192.800 233.340,193.148 232.837,193.700 232.595 C 194.472 232.256,194.611 231.863,194.680 229.842 C 194.782 226.791,194.947 226.409,196.039 226.694 C 196.793 226.892,196.893 226.797,196.701 226.064 C 196.577 225.589,196.638 225.100,196.838 224.977 C 197.037 224.854,197.200 225.213,197.200 225.776 C 197.200 226.602,197.394 226.800,198.200 226.800 C 199.176 226.800,199.529 227.998,199.230 230.300 C 199.194 230.575,199.363 230.800,199.606 230.800 C 199.849 230.800,199.921 231.005,199.766 231.255 C 199.611 231.507,199.879 232.007,200.367 232.375 C 201.110 232.936,201.261 233.474,201.325 235.783 C 201.389 238.108,201.512 238.541,202.137 238.632 C 203.175 238.784,203.142 238.674,203.277 242.411 C 203.393 245.615,203.799 246.959,204.519 246.522 C 204.695 246.416,204.660 246.114,204.442 245.851 C 204.179 245.534,204.185 245.176,204.461 244.787 C 204.809 244.294,204.842 244.306,204.665 244.861 C 204.550 245.224,204.568 245.635,204.706 245.772 C 205.117 246.184,205.240 247.253,205.199 250.071 C 205.160 252.685,205.183 252.746,206.236 252.871 C 207.274 252.995,207.313 253.089,207.328 255.500 C 207.336 256.875,207.501 258.000,207.695 258.000 C 207.889 258.000,207.926 258.196,207.778 258.435 C 207.605 258.715,207.918 258.842,208.655 258.792 C 210.746 258.651,211.143 258.789,211.272 259.700 C 211.376 260.428,211.694 260.624,212.940 260.727 C 214.073 260.820,214.400 260.724,214.178 260.365 C 213.985 260.051,214.043 259.979,214.342 260.164 C 214.949 260.539,240.937 260.609,241.539 260.237 C 241.793 260.081,242.000 260.154,242.000 260.400 C 242.000 260.646,242.199 260.724,242.443 260.574 C 242.749 260.384,242.755 260.220,242.464 260.039 C 241.792 259.624,242.548 258.812,243.694 258.717 C 244.271 258.669,244.735 258.533,244.724 258.415 C 244.641 257.472,244.930 256.933,245.700 256.595 C 246.486 256.250,246.615 255.857,246.718 253.500 C 246.831 250.932,246.885 250.800,247.818 250.800 C 248.732 250.800,248.800 250.659,248.800 248.764 C 248.800 247.149,248.982 246.581,249.681 246.015 C 250.171 245.618,250.591 244.791,250.629 244.151 C 250.666 243.518,250.720 242.548,250.748 241.995 C 250.781 241.367,251.138 240.841,251.700 240.595 C 252.486 240.250,252.615 239.857,252.718 237.500 C 252.831 234.932,252.885 234.800,253.818 234.800 C 254.358 234.800,254.819 234.665,254.841 234.500 C 255.091 232.687,255.069 231.234,254.795 231.403 C 254.608 231.519,254.339 231.426,254.198 231.197 C 254.056 230.968,254.179 230.830,254.470 230.890 C 254.787 230.956,255.051 230.557,255.127 229.900 C 255.216 229.123,255.480 228.800,256.027 228.800 C 256.452 228.800,256.813 228.665,256.830 228.500 C 256.846 228.335,256.940 227.763,257.038 227.229 C 257.136 226.695,256.988 226.110,256.708 225.929 C 256.382 225.718,256.344 225.492,256.600 225.300 C 257.112 224.916,257.138 224.740,257.236 221.069 C 257.296 218.800,257.484 217.871,257.958 217.501 C 258.540 217.047,258.544 217.075,258.000 217.800 C 257.453 218.529,257.458 218.555,258.056 218.088 C 258.889 217.437,259.205 215.812,258.783 214.342 C 258.591 213.670,258.609 213.200,258.828 213.200 C 259.054 213.200,259.200 200.206,259.200 180.000 C 259.200 158.133,259.063 146.800,258.800 146.800 C 258.261 146.800,258.290 145.070,258.837 144.523 C 259.147 144.213,259.151 143.856,258.851 143.296 C 258.618 142.861,258.527 142.406,258.649 142.285 C 258.770 142.163,258.423 141.771,257.877 141.414 C 257.200 140.970,256.950 140.515,257.089 139.982 C 257.201 139.552,257.092 139.178,256.847 139.150 C 256.023 139.058,255.803 138.989,255.300 138.670 C 254.999 138.479,254.800 138.548,254.800 138.843 C 254.800 139.113,254.692 139.225,254.560 139.093 C 254.038 138.572,254.858 137.950,255.436 138.430 C 255.841 138.766,256.000 138.772,256.000 138.449 C 256.000 138.039,255.460 137.833,254.700 137.953 C 254.535 137.979,254.400 137.820,254.400 137.600 C 254.400 137.021,250.260 137.108,249.621 137.700 C 249.190 138.100,249.139 138.100,249.365 137.700 C 249.588 137.305,247.202 137.200,238.000 137.200 C 231.594 137.200,226.445 137.350,226.559 137.533 C 226.672 137.717,226.503 137.867,226.182 137.867 C 225.862 137.867,225.600 137.739,225.600 137.583 C 225.600 137.428,225.150 137.300,224.600 137.300 C 224.050 137.300,223.597 137.503,223.594 137.750 C 223.591 137.998,223.416 137.930,223.206 137.600 C 222.896 137.112,222.678 137.091,222.041 137.486 C 221.426 137.866,221.215 137.866,221.060 137.486 C 220.952 137.219,220.849 137.326,220.832 137.724 C 220.812 138.165,220.620 138.336,220.338 138.162 C 220.052 137.985,219.985 138.052,220.162 138.338 C 220.323 138.600,220.214 138.800,219.911 138.800 C 219.616 138.800,219.336 139.266,219.289 139.836 C 219.169 141.280,218.923 141.557,217.979 141.310 C 217.053 141.068,217.006 143.202,217.931 143.510 C 218.207 143.602,218.307 143.423,218.173 143.074 C 217.948 142.488,218.660 141.727,219.059 142.126 C 219.421 142.488,218.394 144.000,217.786 144.000 C 217.278 144.000,217.191 147.572,217.135 170.900 C 217.099 185.695,216.964 196.810,216.835 195.600 C 216.693 194.276,216.401 193.380,216.100 193.350 C 215.825 193.322,215.420 193.278,215.200 193.250 C 214.980 193.222,214.800 192.338,214.800 191.285 C 214.800 189.623,214.688 189.362,213.955 189.307 C 212.790 189.219,212.733 189.113,212.733 187.033 C 212.733 185.513,212.606 185.200,211.990 185.200 C 211.027 185.200,210.861 184.890,210.742 182.860 C 210.650 181.305,210.565 181.188,209.621 181.321 C 209.060 181.400,208.150 181.218,207.600 180.915 L 206.600 180.366 207.600 180.483 C 208.274 180.562,208.600 180.405,208.600 180.000 C 208.600 179.293,207.643 179.172,206.823 179.775 C 206.384 180.099,206.322 180.075,206.561 179.678 C 206.816 179.253,205.148 179.170,197.637 179.234 C 191.194 179.289,188.398 179.447,188.394 179.757 C 188.391 180.000,188.219 179.933,188.013 179.607 C 187.500 178.796,185.069 181.057,185.340 182.094 C 185.448 182.504,185.052 183.302,184.388 184.013 C 183.763 184.682,183.195 185.628,183.126 186.115 C 183.049 186.655,182.674 187.047,182.164 187.119 C 181.466 187.219,181.317 187.544,181.258 189.092 C 181.181 191.140,181.053 191.387,180.072 191.395 C 179.547 191.399,179.394 191.794,179.374 193.200 C 179.350 194.839,179.253 195.011,178.293 195.125 C 177.312 195.241,177.228 195.408,177.095 197.525 C 177.016 198.776,176.917 186.145,176.876 169.455 L 176.800 139.109 175.681 139.273 C 174.659 139.423,174.576 139.343,174.723 138.340 L 174.884 137.243 158.042 137.226 C 146.557 137.214,141.200 137.342,141.200 137.628 C 141.200 137.859,141.368 137.944,141.572 137.817 C 141.777 137.691,142.048 137.754,142.174 137.958 C 142.301 138.163,142.098 138.285,141.724 138.230 C 141.349 138.175,140.974 137.921,140.888 137.665 C 140.606 136.817,139.263 137.149,139.128 138.100 M278.312 138.461 C 277.628 139.194,277.188 140.150,277.129 141.034 C 277.076 141.807,276.756 142.656,276.417 142.920 C 275.865 143.349,275.863 143.315,276.393 142.600 C 276.980 141.808,276.977 141.808,276.093 142.562 L 275.201 143.323 275.208 199.062 L 275.216 254.800 276.208 254.800 C 277.132 254.800,277.200 254.938,277.200 256.800 L 277.200 258.800 278.900 258.846 C 279.835 258.872,280.285 258.975,279.900 259.076 C 279.501 259.180,279.203 259.633,279.206 260.129 C 279.211 260.838,279.284 260.888,279.600 260.400 C 279.905 259.929,279.989 259.918,279.994 260.349 C 279.999 260.814,280.103 260.814,280.677 260.349 C 281.049 260.047,281.246 259.980,281.115 260.200 C 280.865 260.619,352.787 260.644,353.878 260.225 C 354.204 260.100,354.333 260.184,354.184 260.426 C 354.014 260.701,354.719 260.801,356.263 260.721 C 358.338 260.614,358.614 260.499,358.728 259.700 C 358.829 258.988,359.121 258.795,360.128 258.778 C 366.508 258.665,366.603 258.649,366.552 257.700 C 366.516 257.028,366.725 256.800,367.372 256.800 C 367.849 256.800,368.482 256.575,368.779 256.300 C 369.203 255.906,369.258 255.905,369.037 256.297 C 368.842 256.643,369.059 256.770,369.749 256.712 C 370.295 256.667,370.688 256.533,370.621 256.415 C 370.256 255.766,371.181 254.631,372.117 254.581 C 373.510 254.507,374.333 253.771,374.725 252.250 C 374.948 251.387,375.325 250.960,375.944 250.870 C 376.499 250.789,376.815 250.484,376.774 250.070 C 376.646 248.772,376.809 248.505,377.700 248.552 C 378.397 248.589,378.609 248.374,378.640 247.600 C 378.748 244.862,378.774 244.800,379.824 244.800 L 380.849 244.800 380.748 238.609 C 380.693 235.205,380.801 232.280,380.988 232.109 C 381.175 231.939,381.198 232.026,381.040 232.301 C 380.836 232.654,381.024 232.761,381.676 232.662 L 382.600 232.521 382.689 224.037 C 382.775 215.729,382.561 214.000,381.442 214.000 C 381.241 214.000,381.419 214.405,381.838 214.900 L 382.600 215.800 381.742 215.076 C 380.959 214.416,380.879 213.930,380.824 209.476 C 380.754 203.885,380.664 203.002,380.162 202.994 C 379.516 202.983,378.781 202.354,379.000 202.000 C 379.117 201.810,379.048 201.553,378.846 201.429 C 378.645 201.304,378.538 200.571,378.610 199.801 C 378.681 199.030,378.563 198.400,378.346 198.400 C 378.130 198.400,378.081 198.192,378.238 197.938 C 378.415 197.652,378.348 197.585,378.062 197.762 C 377.808 197.919,377.600 197.837,377.600 197.581 C 377.600 197.324,377.364 197.205,377.075 197.316 C 376.696 197.461,376.598 197.197,376.721 196.359 C 376.871 195.333,376.771 195.200,375.845 195.200 C 374.997 195.200,374.800 195.012,374.800 194.200 C 374.800 193.404,374.599 193.200,373.814 193.200 C 373.225 193.200,372.649 192.865,372.383 192.369 C 372.129 191.893,371.695 191.631,371.369 191.756 C 371.056 191.877,370.800 191.802,370.800 191.590 C 370.800 191.379,370.109 191.233,369.264 191.266 C 367.420 191.338,366.800 191.013,366.800 189.976 C 366.800 189.549,366.665 189.221,366.500 189.247 C 365.609 189.388,364.800 189.143,364.800 188.733 C 364.800 188.477,364.918 188.385,365.063 188.530 C 365.208 188.675,365.603 188.570,365.940 188.297 C 366.449 187.885,366.495 187.903,366.213 188.400 C 366.009 188.758,366.019 188.865,366.236 188.667 C 366.436 188.483,366.600 187.988,366.600 187.567 C 366.600 187.145,366.735 186.800,366.900 186.800 C 367.065 186.800,367.515 186.485,367.900 186.100 C 368.720 185.280,369.052 183.002,368.285 183.462 C 367.943 183.668,367.952 183.567,368.314 183.119 C 368.597 182.770,368.800 182.330,368.767 182.142 C 368.607 181.250,368.874 180.845,369.700 180.728 C 370.517 180.612,370.605 180.368,370.658 178.086 C 370.704 176.137,370.606 175.663,370.225 175.979 C 369.875 176.270,369.733 176.223,369.733 175.816 C 369.733 175.502,369.928 175.279,370.167 175.322 C 370.468 175.376,370.609 172.380,370.629 165.520 C 370.645 160.086,370.510 155.732,370.329 155.844 C 370.148 155.956,370.000 155.835,370.000 155.575 C 370.000 155.235,369.803 155.253,369.300 155.638 C 368.915 155.933,368.736 156.014,368.901 155.819 C 369.067 155.624,368.914 155.022,368.560 154.483 C 368.206 153.943,368.125 153.630,368.379 153.787 C 368.707 153.990,368.813 153.540,368.746 152.236 C 368.693 151.226,368.494 150.400,368.302 150.400 C 368.110 150.400,368.082 150.175,368.241 149.900 C 368.399 149.625,368.388 149.526,368.217 149.681 C 367.776 150.078,366.763 148.964,366.690 148.004 C 366.649 147.451,366.345 147.200,365.715 147.200 C 365.006 147.200,364.800 146.975,364.800 146.200 C 364.800 145.400,364.600 145.200,363.800 145.200 C 362.987 145.200,362.791 144.994,362.754 144.100 C 362.725 143.423,362.637 143.269,362.524 143.700 C 362.424 144.085,362.180 144.400,361.983 144.400 C 361.786 144.400,361.723 144.146,361.842 143.835 C 361.972 143.496,361.767 143.214,361.330 143.130 C 360.918 143.050,360.601 142.645,360.601 142.197 C 360.600 141.549,360.308 141.394,359.000 141.345 C 356.785 141.262,356.870 141.301,356.728 140.300 C 356.609 139.462,356.393 139.397,353.600 139.361 C 351.560 139.335,350.632 139.175,350.700 138.861 C 350.755 138.608,350.609 138.400,350.376 138.400 C 350.143 138.400,350.081 138.192,350.238 137.938 C 350.415 137.652,350.348 137.585,350.062 137.762 C 349.808 137.919,349.600 137.883,349.600 137.682 C 349.600 137.174,338.818 137.162,337.872 137.669 C 337.323 137.962,337.181 137.954,337.375 137.640 C 337.795 136.961,284.753 137.021,284.021 137.700 C 283.590 138.100,283.539 138.100,283.765 137.700 C 284.439 136.505,279.493 137.196,278.312 138.461 M348.217 138.427 C 348.362 138.662,348.727 138.760,349.028 138.645 C 349.328 138.529,349.683 138.611,349.816 138.826 C 349.957 139.054,349.557 139.179,348.857 139.126 C 348.196 139.075,347.734 138.907,347.830 138.751 C 347.926 138.596,347.779 138.377,347.502 138.266 C 347.143 138.121,347.135 138.054,347.476 138.032 C 347.738 138.014,348.072 138.192,348.217 138.427 M135.900 193.470 C 135.840 202.232,135.791 195.180,135.790 177.800 C 135.790 160.420,135.840 153.252,135.900 161.870 C 135.960 170.489,135.960 184.709,135.900 193.470 M116.700 207.330 C 116.641 218.369,116.592 209.220,116.592 187.000 C 116.592 164.780,116.641 155.749,116.700 166.930 C 116.759 178.112,116.759 196.292,116.700 207.330 M118.400 187.000 C 118.400 213.533,118.264 227.200,118.000 227.200 C 117.736 227.200,117.600 213.533,117.600 187.000 C 117.600 160.467,117.736 146.800,118.000 146.800 C 118.264 146.800,118.400 160.467,118.400 187.000 M369.634 162.579 C 370.221 162.216,370.055 162.656,369.400 163.200 C 368.895 163.619,368.805 163.548,368.832 162.749 C 368.849 162.227,368.954 162.026,369.066 162.302 C 369.177 162.579,369.433 162.703,369.634 162.579 M325.600 166.666 C 321.273 166.957,316.489 166.976,316.660 166.700 C 316.763 166.535,319.222 166.432,322.124 166.472 C 325.026 166.512,326.590 166.599,325.600 166.666 M327.400 168.000 C 327.256 168.233,324.996 168.400,321.976 168.400 C 318.792 168.400,316.800 168.246,316.800 168.000 C 316.800 167.753,318.875 167.600,322.224 167.600 C 325.737 167.600,327.560 167.741,327.400 168.000 M333.372 169.245 C 332.979 169.881,332.448 169.619,332.508 168.820 C 332.553 168.235,332.694 168.146,333.079 168.466 C 333.361 168.699,333.493 169.050,333.372 169.245 M331.600 169.200 C 332.000 169.458,332.033 169.590,331.700 169.594 C 331.425 169.597,331.200 169.870,331.200 170.200 C 331.200 170.928,332.440 170.991,333.165 170.300 C 333.593 169.892,333.640 169.966,333.418 170.700 C 333.232 171.314,333.313 171.602,333.673 171.606 C 334.059 171.611,334.074 171.692,333.729 171.912 C 333.166 172.270,333.078 180.000,333.637 180.000 C 333.837 180.000,334.000 180.191,334.000 180.424 C 334.000 180.657,333.833 180.744,333.629 180.618 C 333.425 180.492,333.142 180.754,333.000 181.200 C 332.858 181.646,332.588 181.916,332.399 181.799 C 332.210 181.683,331.925 181.798,331.766 182.055 C 331.570 182.372,331.659 182.420,332.038 182.203 C 332.466 181.959,332.492 181.999,332.149 182.372 C 331.347 183.243,328.725 183.581,322.700 183.590 L 316.800 183.600 316.800 176.200 L 316.800 168.800 323.900 168.806 C 327.805 168.809,331.270 168.987,331.600 169.200 M377.900 199.433 C 377.519 199.815,376.755 199.197,377.039 198.738 C 377.207 198.464,377.431 198.471,377.718 198.758 C 377.954 198.994,378.036 199.298,377.900 199.433 M336.835 212.655 C 339.388 212.896,339.463 212.935,339.276 213.914 C 339.109 214.788,339.199 214.893,339.947 214.698 C 340.827 214.468,341.867 215.600,341.298 216.169 C 341.147 216.320,341.288 216.611,341.612 216.816 C 341.935 217.020,341.998 217.191,341.752 217.194 C 341.183 217.202,341.228 223.273,341.800 223.694 C 342.049 223.877,342.015 223.990,341.709 223.994 C 341.393 223.998,341.251 224.535,341.309 225.500 C 341.392 226.865,341.301 227.011,340.300 227.127 C 339.436 227.226,339.200 227.462,339.200 228.227 L 339.200 229.200 328.000 229.200 L 316.800 229.200 316.800 220.800 L 316.800 212.400 325.500 212.403 C 330.285 212.404,335.386 212.518,336.835 212.655 M382.298 227.700 C 382.225 229.735,382.166 228.070,382.166 224.000 C 382.166 219.930,382.225 218.265,382.298 220.300 C 382.371 222.335,382.371 225.665,382.298 227.700 M255.900 225.833 C 255.519 226.215,254.755 225.597,255.039 225.138 C 255.207 224.864,255.431 224.871,255.718 225.158 C 255.954 225.394,256.036 225.698,255.900 225.833 M250.400 244.240 C 250.400 244.791,249.523 246.000,249.124 246.000 C 248.871 246.000,248.965 245.681,249.338 245.269 C 250.162 244.358,250.191 243.841,249.400 244.145 C 249.031 244.286,248.800 244.144,248.800 243.773 C 248.800 243.296,248.965 243.260,249.600 243.600 C 250.040 243.835,250.400 244.124,250.400 244.240 M378.000 247.176 C 378.000 247.648,377.220 248.153,376.933 247.867 C 376.647 247.580,377.152 246.800,377.624 246.800 C 377.831 246.800,378.000 246.969,378.000 247.176 M241.630 259.310 C 241.581 259.788,241.032 259.696,240.860 259.180 C 240.772 258.916,240.916 258.772,241.180 258.860 C 241.444 258.948,241.647 259.150,241.630 259.310 M74.700 260.676 C 74.315 260.776,73.685 260.776,73.300 260.676 C 72.915 260.575,73.230 260.493,74.000 260.493 C 74.770 260.493,75.085 260.575,74.700 260.676 M88.000 261.186 C 88.000 261.398,87.595 261.784,87.100 262.044 C 86.205 262.514,86.204 262.512,86.962 261.658 C 87.809 260.705,88.000 260.618,88.000 261.186 M75.200 262.000 C 75.200 262.220,74.660 262.400,74.000 262.400 C 73.340 262.400,72.800 262.220,72.800 262.000 C 72.800 261.780,73.340 261.600,74.000 261.600 C 74.660 261.600,75.200 261.780,75.200 262.000 " stroke="none" fill="#acacac" fill-rule="evenodd"></path><path id="path1" d="M84.284 138.000 C 84.399 138.440,84.663 138.800,84.870 138.800 C 85.078 138.800,85.144 138.632,85.017 138.428 C 84.640 137.818,85.588 137.492,86.218 138.015 C 86.561 138.300,86.800 138.331,86.800 138.092 C 86.800 137.621,85.857 137.200,84.805 137.200 C 84.272 137.200,84.131 137.416,84.284 138.000 M254.508 138.300 C 254.512 138.905,254.597 139.167,254.697 138.883 C 254.844 138.464,255.002 138.463,255.539 138.876 C 256.088 139.300,256.081 139.246,255.499 138.561 C 255.114 138.107,254.919 137.615,255.066 137.468 C 255.213 137.320,255.146 137.200,254.917 137.200 C 254.688 137.200,254.504 137.695,254.508 138.300 M219.784 138.027 C 219.639 138.261,219.616 138.549,219.733 138.667 C 220.020 138.953,220.800 138.448,220.800 137.976 C 220.800 137.465,220.109 137.499,219.784 138.027 M347.502 138.266 C 347.779 138.377,347.926 138.596,347.830 138.751 C 347.734 138.907,348.196 139.075,348.857 139.126 C 349.557 139.179,349.957 139.054,349.816 138.826 C 349.683 138.611,349.328 138.529,349.028 138.645 C 348.727 138.760,348.362 138.662,348.217 138.427 C 348.072 138.192,347.738 138.014,347.476 138.032 C 347.135 138.054,347.143 138.121,347.502 138.266 M218.200 142.400 C 218.064 142.620,218.083 143.011,218.242 143.268 C 218.436 143.583,218.313 143.652,217.866 143.481 C 217.500 143.340,217.200 143.399,217.200 143.613 C 217.200 144.304,218.360 144.022,218.786 143.226 C 219.410 142.060,218.876 141.306,218.200 142.400 M258.667 144.667 C 258.248 145.085,258.355 146.800,258.800 146.800 C 259.020 146.800,259.200 146.260,259.200 145.600 C 259.200 144.357,259.119 144.215,258.667 144.667 M118.100 146.623 C 117.460 147.318,117.357 227.200,117.996 227.200 C 118.310 227.200,118.600 188.327,118.600 146.140 C 118.600 146.108,118.375 146.325,118.100 146.623 M135.790 177.800 C 135.791 195.180,135.840 202.232,135.900 193.470 C 135.960 184.709,135.960 170.489,135.900 161.870 C 135.840 153.252,135.790 160.420,135.790 177.800 M77.392 183.200 C 77.392 203.330,77.440 211.565,77.500 201.500 C 77.559 191.435,77.559 174.965,77.500 164.900 C 77.440 154.835,77.392 163.070,77.392 183.200 M116.592 187.000 C 116.592 209.220,116.641 218.369,116.700 207.330 C 116.759 196.292,116.759 178.112,116.700 166.930 C 116.641 155.749,116.592 164.780,116.592 187.000 M368.832 162.749 C 368.805 163.548,368.895 163.619,369.400 163.200 C 370.055 162.656,370.221 162.216,369.634 162.579 C 369.433 162.703,369.177 162.579,369.066 162.302 C 368.954 162.026,368.849 162.227,368.832 162.749 M316.660 166.700 C 316.558 166.865,318.122 166.952,320.137 166.893 C 326.753 166.701,327.487 166.545,322.124 166.472 C 319.222 166.432,316.763 166.535,316.660 166.700 M316.800 168.000 C 316.800 168.246,318.792 168.400,321.976 168.400 C 324.996 168.400,327.256 168.233,327.400 168.000 C 327.560 167.741,325.737 167.600,322.224 167.600 C 318.875 167.600,316.800 167.753,316.800 168.000 M332.508 168.820 C 332.448 169.619,332.979 169.881,333.372 169.245 C 333.493 169.050,333.361 168.699,333.079 168.466 C 332.694 168.146,332.553 168.235,332.508 168.820 M207.200 180.683 C 207.530 180.807,207.995 181.060,208.233 181.247 C 208.496 181.453,208.667 181.385,208.667 181.075 C 208.667 180.794,208.202 180.540,207.633 180.511 C 207.065 180.483,206.870 180.560,207.200 180.683 M183.200 184.000 C 183.200 184.907,183.615 185.025,184.320 184.320 C 185.025 183.615,184.907 183.200,184.000 183.200 C 183.467 183.200,183.200 183.467,183.200 184.000 M319.919 183.498 C 321.744 183.572,324.624 183.572,326.319 183.497 C 328.014 183.422,326.520 183.361,323.000 183.362 C 319.480 183.362,318.094 183.424,319.919 183.498 M377.039 198.738 C 376.900 198.961,376.982 199.265,377.220 199.412 C 377.835 199.793,378.232 199.272,377.718 198.758 C 377.431 198.471,377.207 198.464,377.039 198.738 M321.500 212.699 C 324.195 212.768,328.605 212.768,331.300 212.699 C 333.995 212.630,331.790 212.573,326.400 212.573 C 321.010 212.573,318.805 212.630,321.500 212.699 M258.702 214.200 C 258.807 214.750,258.962 215.200,259.047 215.200 C 259.131 215.200,259.200 214.750,259.200 214.200 C 259.200 213.650,259.045 213.200,258.855 213.200 C 258.666 213.200,258.597 213.650,258.702 214.200 M382.166 224.000 C 382.166 228.070,382.225 229.735,382.298 227.700 C 382.371 225.665,382.371 222.335,382.298 220.300 C 382.225 218.265,382.166 219.930,382.166 224.000 M341.324 221.000 C 341.326 222.320,341.401 222.812,341.490 222.093 C 341.579 221.374,341.577 220.294,341.486 219.693 C 341.395 219.092,341.322 219.680,341.324 221.000 M255.039 225.138 C 254.900 225.361,254.982 225.665,255.220 225.812 C 255.835 226.193,256.232 225.672,255.718 225.158 C 255.431 224.871,255.207 224.864,255.039 225.138 M73.307 226.040 C 73.241 226.912,74.498 226.774,74.627 225.895 C 74.684 225.508,74.452 225.276,74.040 225.307 C 73.665 225.335,73.335 225.665,73.307 226.040 M140.000 230.824 C 140.000 231.057,139.820 231.136,139.600 231.000 C 139.380 230.864,139.200 231.123,139.200 231.576 C 139.200 232.034,139.461 232.400,139.787 232.400 C 140.171 232.400,140.286 232.169,140.119 231.734 C 139.949 231.290,140.018 231.164,140.327 231.355 C 140.630 231.542,140.708 231.426,140.553 231.021 C 140.278 230.306,140.000 230.206,140.000 230.824 M117.700 234.834 C 117.205 235.021,116.814 235.405,116.832 235.687 C 116.855 236.060,116.916 236.069,117.057 235.722 C 117.164 235.460,117.492 235.337,117.785 235.450 C 118.079 235.562,118.445 235.450,118.600 235.201 C 119.000 234.552,118.732 234.443,117.700 234.834 M248.800 243.773 C 248.800 244.144,249.031 244.286,249.400 244.145 C 250.191 243.841,250.162 244.358,249.338 245.269 C 248.958 245.688,248.869 246.000,249.128 246.000 C 249.655 246.000,250.968 243.635,250.629 243.296 C 250.503 243.170,250.400 243.283,250.400 243.547 C 250.400 243.904,250.194 243.918,249.600 243.600 C 248.965 243.260,248.800 243.296,248.800 243.773 M204.260 244.987 C 204.136 245.310,204.210 245.683,204.424 245.815 C 204.638 245.947,204.692 246.251,204.545 246.489 C 204.378 246.759,204.464 246.808,204.773 246.617 C 205.107 246.410,205.138 246.178,204.866 245.906 C 204.644 245.684,204.558 245.254,204.674 244.951 C 204.790 244.648,204.796 244.400,204.686 244.400 C 204.576 244.400,204.384 244.664,204.260 244.987 M376.984 247.227 C 376.839 247.461,376.816 247.749,376.933 247.867 C 377.220 248.153,378.000 247.648,378.000 247.176 C 378.000 246.665,377.309 246.699,376.984 247.227 M31.600 254.685 C 31.930 254.807,32.425 255.085,32.700 255.303 C 33.057 255.585,33.200 255.512,33.200 255.049 C 33.200 254.600,32.861 254.410,32.100 254.432 C 31.473 254.450,31.258 254.559,31.600 254.685 M240.860 259.180 C 240.948 259.444,241.150 259.647,241.310 259.630 C 241.788 259.581,241.696 259.032,241.180 258.860 C 240.916 258.772,240.772 258.916,240.860 259.180 M242.074 259.630 C 241.766 260.123,241.306 260.373,240.955 260.238 C 240.618 260.109,240.465 260.181,240.603 260.405 C 241.111 261.226,243.042 260.126,242.731 259.192 C 242.657 258.972,242.362 259.169,242.074 259.630 M156.746 260.507 C 156.916 260.676,161.632 260.766,167.227 260.707 L 177.400 260.599 166.919 260.399 C 161.155 260.290,156.577 260.338,156.746 260.507 M73.300 260.676 C 73.685 260.776,74.315 260.776,74.700 260.676 C 75.085 260.575,74.770 260.493,74.000 260.493 C 73.230 260.493,72.915 260.575,73.300 260.676 M221.676 260.699 C 224.468 260.767,229.148 260.768,232.076 260.699 C 235.004 260.631,232.720 260.575,227.000 260.574 C 221.280 260.574,218.884 260.630,221.676 260.699 M301.100 260.700 C 309.955 260.760,324.445 260.760,333.300 260.700 C 342.155 260.640,334.910 260.591,317.200 260.591 C 299.490 260.591,292.245 260.640,301.100 260.700 M86.962 261.658 C 86.204 262.512,86.205 262.514,87.100 262.044 C 87.595 261.784,88.000 261.398,88.000 261.186 C 88.000 260.618,87.809 260.705,86.962 261.658 M72.688 262.114 C 72.545 262.488,72.861 262.586,73.845 262.471 C 74.590 262.384,75.200 262.152,75.200 261.956 C 75.200 261.396,72.908 261.540,72.688 262.114 " stroke="none" fill="#b0acac" fill-rule="evenodd"></path><path id="path2" d="M84.284 138.000 C 84.399 138.440,84.663 138.800,84.870 138.800 C 85.078 138.800,85.144 138.632,85.017 138.428 C 84.640 137.818,85.588 137.492,86.218 138.015 C 86.561 138.300,86.800 138.331,86.800 138.092 C 86.800 137.621,85.857 137.200,84.805 137.200 C 84.272 137.200,84.131 137.416,84.284 138.000 M254.508 138.300 C 254.512 138.905,254.597 139.167,254.697 138.883 C 254.844 138.464,255.002 138.463,255.539 138.876 C 256.088 139.300,256.081 139.246,255.499 138.561 C 255.114 138.107,254.919 137.615,255.066 137.468 C 255.213 137.320,255.146 137.200,254.917 137.200 C 254.688 137.200,254.504 137.695,254.508 138.300 M219.784 138.027 C 219.639 138.261,219.616 138.549,219.733 138.667 C 220.020 138.953,220.800 138.448,220.800 137.976 C 220.800 137.465,220.109 137.499,219.784 138.027 M347.502 138.266 C 347.779 138.377,347.926 138.596,347.830 138.751 C 347.734 138.907,348.196 139.075,348.857 139.126 C 349.557 139.179,349.957 139.054,349.816 138.826 C 349.683 138.611,349.328 138.529,349.028 138.645 C 348.727 138.760,348.362 138.662,348.217 138.427 C 348.072 138.192,347.738 138.014,347.476 138.032 C 347.135 138.054,347.143 138.121,347.502 138.266 M218.200 142.400 C 218.064 142.620,218.083 143.011,218.242 143.268 C 218.436 143.583,218.313 143.652,217.866 143.481 C 217.500 143.340,217.200 143.399,217.200 143.613 C 217.200 144.304,218.360 144.022,218.786 143.226 C 219.410 142.060,218.876 141.306,218.200 142.400 M258.667 144.667 C 258.248 145.085,258.355 146.800,258.800 146.800 C 259.020 146.800,259.200 146.260,259.200 145.600 C 259.200 144.357,259.119 144.215,258.667 144.667 M118.100 146.623 C 117.460 147.318,117.357 227.200,117.996 227.200 C 118.310 227.200,118.600 188.327,118.600 146.140 C 118.600 146.108,118.375 146.325,118.100 146.623 M135.790 177.800 C 135.791 195.180,135.840 202.232,135.900 193.470 C 135.960 184.709,135.960 170.489,135.900 161.870 C 135.840 153.252,135.790 160.420,135.790 177.800 M77.392 183.200 C 77.392 203.330,77.440 211.565,77.500 201.500 C 77.559 191.435,77.559 174.965,77.500 164.900 C 77.440 154.835,77.392 163.070,77.392 183.200 M116.592 187.000 C 116.592 209.220,116.641 218.369,116.700 207.330 C 116.759 196.292,116.759 178.112,116.700 166.930 C 116.641 155.749,116.592 164.780,116.592 187.000 M368.832 162.749 C 368.805 163.548,368.895 163.619,369.400 163.200 C 370.055 162.656,370.221 162.216,369.634 162.579 C 369.433 162.703,369.177 162.579,369.066 162.302 C 368.954 162.026,368.849 162.227,368.832 162.749 M316.660 166.700 C 316.558 166.865,318.122 166.952,320.137 166.893 C 326.753 166.701,327.487 166.545,322.124 166.472 C 319.222 166.432,316.763 166.535,316.660 166.700 M316.800 168.000 C 316.800 168.246,318.792 168.400,321.976 168.400 C 324.996 168.400,327.256 168.233,327.400 168.000 C 327.560 167.741,325.737 167.600,322.224 167.600 C 318.875 167.600,316.800 167.753,316.800 168.000 M332.508 168.820 C 332.448 169.619,332.979 169.881,333.372 169.245 C 333.493 169.050,333.361 168.699,333.079 168.466 C 332.694 168.146,332.553 168.235,332.508 168.820 M207.200 180.683 C 207.530 180.807,207.995 181.060,208.233 181.247 C 208.496 181.453,208.667 181.385,208.667 181.075 C 208.667 180.794,208.202 180.540,207.633 180.511 C 207.065 180.483,206.870 180.560,207.200 180.683 M183.200 184.000 C 183.200 184.907,183.615 185.025,184.320 184.320 C 185.025 183.615,184.907 183.200,184.000 183.200 C 183.467 183.200,183.200 183.467,183.200 184.000 M319.919 183.498 C 321.744 183.572,324.624 183.572,326.319 183.497 C 328.014 183.422,326.520 183.361,323.000 183.362 C 319.480 183.362,318.094 183.424,319.919 183.498 M377.039 198.738 C 376.900 198.961,376.982 199.265,377.220 199.412 C 377.835 199.793,378.232 199.272,377.718 198.758 C 377.431 198.471,377.207 198.464,377.039 198.738 M321.500 212.699 C 324.195 212.768,328.605 212.768,331.300 212.699 C 333.995 212.630,331.790 212.573,326.400 212.573 C 321.010 212.573,318.805 212.630,321.500 212.699 M258.702 214.200 C 258.807 214.750,258.962 215.200,259.047 215.200 C 259.131 215.200,259.200 214.750,259.200 214.200 C 259.200 213.650,259.045 213.200,258.855 213.200 C 258.666 213.200,258.597 213.650,258.702 214.200 M382.166 224.000 C 382.166 228.070,382.225 229.735,382.298 227.700 C 382.371 225.665,382.371 222.335,382.298 220.300 C 382.225 218.265,382.166 219.930,382.166 224.000 M341.324 221.000 C 341.326 222.320,341.401 222.812,341.490 222.093 C 341.579 221.374,341.577 220.294,341.486 219.693 C 341.395 219.092,341.322 219.680,341.324 221.000 M255.039 225.138 C 254.900 225.361,254.982 225.665,255.220 225.812 C 255.835 226.193,256.232 225.672,255.718 225.158 C 255.431 224.871,255.207 224.864,255.039 225.138 M73.307 226.040 C 73.241 226.912,74.498 226.774,74.627 225.895 C 74.684 225.508,74.452 225.276,74.040 225.307 C 73.665 225.335,73.335 225.665,73.307 226.040 M140.000 230.824 C 140.000 231.057,139.820 231.136,139.600 231.000 C 139.380 230.864,139.200 231.123,139.200 231.576 C 139.200 232.034,139.461 232.400,139.787 232.400 C 140.171 232.400,140.286 232.169,140.119 231.734 C 139.949 231.290,140.018 231.164,140.327 231.355 C 140.630 231.542,140.708 231.426,140.553 231.021 C 140.278 230.306,140.000 230.206,140.000 230.824 M117.700 234.834 C 117.205 235.021,116.814 235.405,116.832 235.687 C 116.855 236.060,116.916 236.069,117.057 235.722 C 117.164 235.460,117.492 235.337,117.785 235.450 C 118.079 235.562,118.445 235.450,118.600 235.201 C 119.000 234.552,118.732 234.443,117.700 234.834 M248.800 243.773 C 248.800 244.144,249.031 244.286,249.400 244.145 C 250.191 243.841,250.162 244.358,249.338 245.269 C 248.958 245.688,248.869 246.000,249.128 246.000 C 249.655 246.000,250.968 243.635,250.629 243.296 C 250.503 243.170,250.400 243.283,250.400 243.547 C 250.400 243.904,250.194 243.918,249.600 243.600 C 248.965 243.260,248.800 243.296,248.800 243.773 M204.260 244.987 C 204.136 245.310,204.210 245.683,204.424 245.815 C 204.638 245.947,204.692 246.251,204.545 246.489 C 204.378 246.759,204.464 246.808,204.773 246.617 C 205.107 246.410,205.138 246.178,204.866 245.906 C 204.644 245.684,204.558 245.254,204.674 244.951 C 204.790 244.648,204.796 244.400,204.686 244.400 C 204.576 244.400,204.384 244.664,204.260 244.987 M376.984 247.227 C 376.839 247.461,376.816 247.749,376.933 247.867 C 377.220 248.153,378.000 247.648,378.000 247.176 C 378.000 246.665,377.309 246.699,376.984 247.227 M31.600 254.685 C 31.930 254.807,32.425 255.085,32.700 255.303 C 33.057 255.585,33.200 255.512,33.200 255.049 C 33.200 254.600,32.861 254.410,32.100 254.432 C 31.473 254.450,31.258 254.559,31.600 254.685 M240.860 259.180 C 240.948 259.444,241.150 259.647,241.310 259.630 C 241.788 259.581,241.696 259.032,241.180 258.860 C 240.916 258.772,240.772 258.916,240.860 259.180 M242.074 259.630 C 241.766 260.123,241.306 260.373,240.955 260.238 C 240.618 260.109,240.465 260.181,240.603 260.405 C 241.111 261.226,243.042 260.126,242.731 259.192 C 242.657 258.972,242.362 259.169,242.074 259.630 M156.746 260.507 C 156.916 260.676,161.632 260.766,167.227 260.707 L 177.400 260.599 166.919 260.399 C 161.155 260.290,156.577 260.338,156.746 260.507 M73.300 260.676 C 73.685 260.776,74.315 260.776,74.700 260.676 C 75.085 260.575,74.770 260.493,74.000 260.493 C 73.230 260.493,72.915 260.575,73.300 260.676 M221.676 260.699 C 224.468 260.767,229.148 260.768,232.076 260.699 C 235.004 260.631,232.720 260.575,227.000 260.574 C 221.280 260.574,218.884 260.630,221.676 260.699 M301.100 260.700 C 309.955 260.760,324.445 260.760,333.300 260.700 C 342.155 260.640,334.910 260.591,317.200 260.591 C 299.490 260.591,292.245 260.640,301.100 260.700 M86.962 261.658 C 86.204 262.512,86.205 262.514,87.100 262.044 C 87.595 261.784,88.000 261.398,88.000 261.186 C 88.000 260.618,87.809 260.705,86.962 261.658 M72.688 262.114 C 72.545 262.488,72.861 262.586,73.845 262.471 C 74.590 262.384,75.200 262.152,75.200 261.956 C 75.200 261.396,72.908 261.540,72.688 262.114 " stroke="none" fill="#b0acac" fill-rule="evenodd"></path></g></svg>